<svg id="svg" version="1.1" xmlns="http://www.w3.org/2000/svg" xmlns:xlink="http://www.w3.org/1999/xlink" width="400" height="516.5467625899281" viewBox="0, 0, 400,516.5467625899281"><g id="svgg"><path id="path0" d="M157.213 127.323 C 156.725 127.711,155.308 128.749,154.065 129.631 C 145.471 135.723,143.466 142.204,143.238 164.628 L 143.117 176.619 143.638 177.278 C 143.948 177.670,144.393 177.938,144.736 177.938 C 145.256 177.938,145.289 177.998,145.076 178.557 C 144.376 180.400,141.487 192.302,141.487 193.345 C 141.487 193.411,141.169 193.529,140.780 193.607 C 140.391 193.684,139.943 193.993,139.782 194.294 C 139.621 194.594,138.471 195.974,137.226 197.360 C 131.317 203.937,129.017 209.111,129.017 215.822 C 129.017 223.564,134.498 232.496,139.975 233.680 C 140.736 233.844,141.038 233.776,145.444 232.441 C 150.746 230.835,152.099 230.619,157.531 230.510 L 162.663 230.407 162.507 232.290 C 162.193 236.069,161.849 248.615,162.007 250.547 L 162.168 252.533 161.356 253.322 C 160.909 253.756,159.252 255.722,157.675 257.691 C 156.097 259.660,153.374 262.706,151.624 264.460 C 148.308 267.782,147.983 268.336,148.880 269.147 C 150.074 270.228,153.772 267.103,158.997 260.597 L 161.271 257.764 161.435 262.036 C 161.700 268.926,161.844 269.544,163.189 269.544 C 164.452 269.544,164.902 268.160,164.532 265.411 C 164.106 262.238,164.072 255.635,164.482 255.635 C 165.562 255.636,172.787 262.518,174.814 265.477 C 175.602 266.628,176.420 267.637,176.632 267.718 C 178.598 268.472,179.757 266.552,178.252 265.037 C 177.749 264.531,176.857 263.440,176.270 262.614 C 174.452 260.056,167.150 253.422,165.477 252.808 C 164.618 252.493,164.557 250.470,165.030 238.097 L 165.321 230.510 174.807 230.330 C 184.163 230.153,200.155 230.303,204.518 230.608 L 206.759 230.764 206.617 231.749 C 205.736 237.894,205.285 254.446,205.980 255.141 L 206.514 255.675 203.912 258.353 C 200.997 261.353,195.278 267.669,194.652 268.579 C 193.846 269.751,194.431 271.223,195.703 271.223 C 195.919 271.223,197.442 269.685,199.088 267.805 C 200.734 265.925,203.161 263.258,204.481 261.878 L 206.880 259.369 208.143 264.517 C 209.906 271.700,210.206 272.265,211.854 271.514 C 212.787 271.089,213.034 268.601,212.228 267.743 C 211.681 267.161,209.051 257.094,209.357 256.754 C 209.456 256.644,211.735 258.218,214.421 260.251 C 224.003 267.505,225.433 268.321,226.280 267.028 C 226.975 265.968,226.589 265.489,223.095 263.070 C 221.286 261.817,217.432 258.976,214.530 256.757 C 211.628 254.538,209.045 252.610,208.789 252.473 C 208.182 252.148,208.762 235.122,209.501 231.564 L 209.644 230.873 211.836 231.027 C 215.625 231.293,222.931 231.626,228.657 231.794 C 233.299 231.931,234.306 232.025,235.012 232.391 C 238.374 234.131,240.088 233.816,242.750 230.970 C 251.656 221.449,251.883 205.936,243.284 194.604 C 242.483 193.549,241.581 192.281,241.278 191.786 C 240.975 191.291,240.475 190.823,240.165 190.745 C 239.561 190.594,239.488 190.332,239.201 187.290 C 239.120 186.433,239.000 185.540,238.934 185.307 C 238.849 185.009,239.486 184.186,241.068 182.549 C 244.241 179.264,244.996 177.391,246.692 168.585 C 247.572 164.019,247.712 148.826,246.920 143.885 C 245.894 137.482,244.546 133.648,242.841 132.277 C 240.391 130.309,233.445 132.208,227.218 136.548 C 225.767 137.559,222.530 139.739,220.024 141.394 C 217.518 143.048,215.168 144.685,214.802 145.033 C 214.181 145.623,214.086 145.643,213.364 145.345 C 204.972 141.884,192.640 140.639,182.560 142.237 C 180.500 142.564,180.769 142.719,176.499 138.734 C 171.738 134.290,167.539 131.106,162.131 127.838 C 159.648 126.338,158.592 126.227,157.213 127.323 M162.377 131.359 C 167.087 134.312,170.009 136.592,174.893 141.127 L 177.185 143.255 174.831 144.143 C 166.870 147.147,160.275 152.115,156.710 157.794 C 156.338 158.387,154.711 160.869,153.095 163.309 C 151.479 165.749,149.387 169.224,148.446 171.030 C 145.879 175.958,145.969 176.263,146.111 163.094 C 146.259 149.453,146.777 145.391,149.061 139.961 C 150.667 136.145,151.968 134.683,157.065 130.973 C 159.517 129.188,158.836 129.138,162.377 131.359 M241.469 134.924 C 246.645 141.504,245.313 174.421,239.647 179.929 C 238.197 181.339,238.250 181.350,237.898 179.556 C 236.604 172.963,232.660 164.252,227.512 156.619 C 225.614 153.804,222.071 150.522,218.309 148.093 L 216.842 147.146 217.713 146.440 C 218.193 146.051,220.474 144.493,222.782 142.978 C 225.090 141.463,227.518 139.848,228.177 139.390 C 232.473 136.405,234.809 135.262,237.863 134.654 C 240.346 134.159,240.900 134.200,241.469 134.924 M190.142 145.320 C 189.658 147.475,189.463 149.752,189.437 153.548 C 189.422 155.751,189.362 157.554,189.305 157.554 C 189.248 157.554,187.881 157.294,186.267 156.977 C 175.075 154.776,166.874 156.599,163.801 161.969 C 160.365 167.976,159.144 181.718,161.661 186.061 C 161.919 186.507,162.098 186.898,162.060 186.930 C 162.022 186.963,161.647 187.164,161.226 187.378 C 160.806 187.591,159.457 188.399,158.229 189.173 C 153.628 192.072,152.025 192.649,147.405 193.071 C 143.982 193.384,144.263 193.691,144.949 190.394 C 147.170 179.720,149.693 173.560,155.260 165.215 C 156.719 163.026,158.470 160.380,159.150 159.335 C 162.100 154.800,166.759 150.894,172.316 148.297 C 175.123 146.985,179.967 145.324,180.985 145.324 C 181.409 145.324,182.812 145.163,184.103 144.967 C 186.555 144.595,187.700 144.472,189.363 144.405 L 190.357 144.365 190.142 145.320 M201.079 145.114 C 206.138 145.771,208.871 146.489,211.877 147.954 C 213.240 148.618,214.433 149.161,214.529 149.161 C 215.670 149.161,222.957 155.146,224.573 157.412 C 236.131 173.608,238.839 189.403,235.844 223.141 C 235.354 228.660,235.382 228.551,234.509 228.377 C 234.014 228.278,233.658 228.363,233.331 228.659 C 232.745 229.189,227.514 229.068,211.391 228.151 C 197.946 227.387,188.503 227.250,168.345 227.529 L 152.158 227.753 148.237 228.760 C 146.080 229.314,144.275 229.727,144.225 229.677 C 143.993 229.445,143.175 219.763,143.035 215.588 C 142.878 210.892,143.162 203.509,143.678 198.857 C 143.997 195.985,143.515 196.308,148.201 195.826 C 152.708 195.363,154.616 194.681,159.352 191.840 C 161.463 190.573,164.269 188.905,165.588 188.133 C 168.452 186.455,172.623 183.707,174.049 182.558 L 175.076 181.730 176.207 182.644 C 176.829 183.148,178.094 184.204,179.017 184.993 C 179.940 185.781,182.530 187.790,184.772 189.456 C 187.014 191.122,189.003 192.673,189.191 192.901 C 190.850 194.915,192.318 194.165,196.179 189.329 C 198.092 186.933,199.993 184.892,200.313 184.892 C 200.446 184.892,201.537 185.526,202.736 186.302 C 213.730 193.410,233.084 197.992,233.526 193.592 C 233.645 192.412,231.851 191.427,231.276 192.356 C 231.045 192.731,224.591 192.163,224.029 191.719 C 223.989 191.688,224.391 191.042,224.923 190.283 C 228.177 185.638,227.431 175.950,223.187 167.746 C 221.245 163.990,216.012 159.725,209.832 156.858 C 206.386 155.260,200.408 155.472,194.784 157.392 L 193.046 157.986 193.003 152.794 C 192.979 149.938,192.976 147.386,192.995 147.122 C 193.014 146.859,193.048 146.372,193.072 146.042 C 193.096 145.712,193.033 145.183,192.933 144.866 L 192.750 144.292 194.996 144.453 C 196.232 144.543,198.969 144.840,201.079 145.114 M180.336 158.879 C 182.213 159.055,186.451 159.837,188.189 160.329 C 189.738 160.767,189.783 161.071,188.643 163.436 C 187.031 166.781,184.591 169.511,178.058 175.278 C 176.079 177.024,173.986 178.878,173.407 179.398 C 172.424 180.281,166.727 184.234,165.530 184.863 C 161.486 186.992,162.894 166.703,167.098 162.268 C 168.799 160.474,174.953 158.396,177.818 158.649 C 178.345 158.695,179.478 158.799,180.336 158.879 M208.199 159.194 C 210.837 160.341,217.616 164.830,218.874 166.262 C 224.224 172.356,225.984 189.023,221.343 189.649 C 221.013 189.694,220.502 189.954,220.208 190.227 L 219.672 190.724 217.450 190.057 C 212.151 188.468,202.055 183.273,201.511 181.857 C 201.439 181.669,200.980 181.310,200.490 181.061 C 196.922 179.240,193.791 172.479,192.522 163.855 C 192.069 160.774,193.717 159.917,202.518 158.658 C 204.118 158.429,207.084 158.709,208.199 159.194 M171.643 160.930 C 170.515 161.588,171.347 164.021,173.304 165.784 C 177.730 169.773,178.903 170.465,179.717 169.566 C 180.581 168.610,180.166 167.919,177.218 165.403 C 175.227 163.703,174.335 162.768,174.009 162.040 C 173.386 160.650,172.687 160.322,171.643 160.930 M208.075 166.247 C 206.829 167.731,205.069 169.617,204.164 170.439 C 203.259 171.261,202.160 172.257,201.723 172.653 C 200.286 173.953,201.294 176.138,202.933 175.275 C 203.896 174.769,207.026 171.817,208.984 169.570 C 210.030 168.369,211.027 167.386,211.199 167.386 C 211.846 167.386,212.470 166.445,212.470 165.468 C 212.470 162.629,210.874 162.912,208.075 166.247 M190.895 170.017 C 192.154 175.172,193.840 178.636,196.443 181.420 L 197.893 182.970 196.728 184.247 C 196.088 184.950,194.646 186.673,193.525 188.077 C 192.404 189.481,191.407 190.634,191.310 190.639 C 190.776 190.665,177.728 180.483,177.507 179.869 C 177.469 179.761,179.285 178.025,181.544 176.011 C 185.585 172.408,187.658 170.240,189.195 168.005 C 190.150 166.617,190.030 166.475,190.895 170.017 M173.327 172.362 C 172.021 173.849,173.205 176.199,174.930 175.544 C 176.470 174.958,176.973 173.431,175.944 172.464 C 175.255 171.817,173.854 171.762,173.327 172.362 M209.597 176.087 C 208.871 176.455,208.402 177.328,208.397 178.320 C 208.388 180.255,210.997 180.381,211.962 178.493 C 212.808 176.839,211.248 175.252,209.597 176.087 M240.965 196.272 C 244.756 200.589,247.592 210.458,246.750 216.397 C 245.994 221.727,241.437 229.678,238.626 230.570 C 237.847 230.817,237.844 230.788,238.242 227.551 C 239.014 221.265,239.371 214.954,239.498 205.336 C 239.640 194.549,239.611 194.730,240.965 196.272 M140.696 199.760 C 140.197 203.512,140.363 222.222,140.934 226.619 C 141.369 229.963,141.380 230.366,141.046 230.635 C 139.667 231.751,136.100 228.292,133.814 223.621 C 129.867 215.557,131.565 208.000,139.273 199.331 C 141.124 197.250,141.034 197.223,140.696 199.760 M223.208 202.868 C 222.627 203.325,222.255 203.357,217.544 203.357 C 211.258 203.357,209.944 203.828,211.139 205.650 L 211.554 206.284 218.187 206.197 C 225.675 206.098,226.653 205.903,226.816 204.482 C 226.986 202.994,224.476 201.871,223.208 202.868 M160.607 205.163 C 159.451 205.331,157.064 205.509,155.303 205.557 C 153.074 205.618,151.982 205.743,151.710 205.969 C 151.254 206.348,151.189 207.688,151.607 208.106 C 151.961 208.460,157.365 208.486,159.832 208.146 C 160.755 208.019,162.212 207.848,163.070 207.766 C 164.996 207.582,165.707 207.178,165.707 206.267 C 165.707 204.783,164.705 204.566,160.607 205.163 M163.636 211.640 C 162.866 211.977,158.476 212.422,154.490 212.567 C 151.676 212.669,150.891 213.235,151.472 214.747 C 151.893 215.844,163.919 215.277,165.444 214.088 C 167.304 212.637,165.851 210.669,163.636 211.640 M225.882 212.371 C 225.592 212.721,221.266 212.754,215.121 212.454 C 214.029 212.400,213.564 213.669,214.329 214.613 C 214.942 215.370,217.364 215.629,223.007 215.541 C 228.296 215.459,228.777 215.319,228.777 213.861 C 228.777 212.442,226.707 211.376,225.882 212.371 " stroke="none" fill="#080808" fill-rule="evenodd"></path><path id="path1" d="M0.000 258.273 L 0.000 516.547 200.000 516.547 L 400.000 516.547 400.000 258.273 L 400.000 0.000 200.000 0.000 L 0.000 0.000 0.000 258.273 M161.067 127.113 C 165.419 129.389,171.766 134.156,177.338 139.334 C 180.878 142.624,180.531 142.456,182.974 142.053 C 191.591 140.630,205.657 141.955,212.376 144.821 L 213.968 145.500 216.676 143.523 C 218.165 142.436,220.715 140.709,222.342 139.685 C 223.969 138.661,226.325 137.095,227.578 136.205 C 232.965 132.380,240.016 130.318,242.486 131.845 C 248.219 135.388,249.633 162.690,244.822 176.925 C 243.937 179.543,243.003 180.976,241.086 182.659 C 239.008 184.483,239.032 184.415,239.363 187.582 C 239.636 190.200,239.669 190.303,240.373 190.767 C 240.773 191.031,241.376 191.690,241.713 192.232 C 242.050 192.773,242.893 193.961,243.587 194.870 C 248.022 200.687,250.723 210.562,249.645 217.026 C 248.289 225.162,242.471 233.546,238.166 233.568 C 237.163 233.573,236.855 233.468,235.012 232.493 C 234.279 232.105,233.279 232.024,227.098 231.852 C 223.207 231.743,217.704 231.511,214.868 231.336 C 212.032 231.162,209.696 231.027,209.675 231.037 C 209.426 231.159,208.636 244.605,208.634 248.731 L 208.633 252.258 209.925 253.168 C 210.636 253.668,213.803 256.019,216.962 258.393 C 220.121 260.767,223.559 263.303,224.602 264.029 C 226.769 265.536,227.260 266.670,226.099 267.483 C 225.055 268.215,223.512 267.277,214.440 260.399 C 209.521 256.670,209.202 256.473,209.420 257.308 C 209.500 257.612,210.080 259.978,210.709 262.564 C 211.507 265.843,211.983 267.361,212.281 267.580 C 213.029 268.127,212.888 270.808,212.078 271.445 C 210.372 272.787,209.844 271.946,208.213 265.288 C 207.461 262.221,206.778 259.712,206.694 259.712 C 206.516 259.712,199.147 267.815,197.468 269.856 C 196.137 271.474,195.287 271.635,194.397 270.438 C 193.903 269.773,193.903 269.771,194.373 268.891 C 194.840 268.017,201.034 261.063,204.517 257.503 C 206.300 255.680,206.319 255.647,205.883 255.165 C 205.466 254.704,205.450 254.266,205.594 247.661 C 205.733 241.354,205.861 238.931,206.377 232.820 L 206.532 230.987 205.604 230.841 C 203.314 230.480,187.467 230.218,176.959 230.368 L 165.550 230.531 165.264 235.949 C 165.108 238.929,164.982 243.849,164.985 246.882 L 164.992 252.398 165.897 252.915 C 168.644 254.483,175.479 260.935,176.978 263.376 C 177.440 264.127,177.917 264.743,178.039 264.745 C 179.124 264.760,179.463 266.602,178.548 267.517 C 177.408 268.657,176.449 268.119,174.527 265.263 C 172.807 262.706,165.401 255.635,164.444 255.635 C 164.166 255.635,164.481 265.901,164.775 266.467 C 165.367 267.602,164.365 269.544,163.189 269.544 C 161.729 269.544,161.575 269.020,161.446 263.596 C 161.302 257.592,161.461 257.737,158.705 261.094 C 154.388 266.353,150.430 269.991,149.384 269.659 C 147.505 269.063,147.906 267.988,151.226 264.720 C 152.751 263.219,155.311 260.375,156.915 258.400 C 158.520 256.425,160.277 254.321,160.821 253.724 L 161.810 252.638 161.962 244.365 C 162.046 239.814,162.182 234.809,162.264 233.243 L 162.413 230.395 157.645 230.566 C 152.407 230.754,150.918 231.005,145.272 232.651 C 139.085 234.454,137.169 233.848,133.523 228.930 C 126.414 219.342,127.374 208.351,136.185 198.440 C 137.122 197.385,138.439 195.848,139.110 195.024 C 139.995 193.938,140.491 193.525,140.909 193.525 C 141.348 193.525,141.487 193.395,141.489 192.986 C 141.493 191.742,144.214 180.337,144.987 178.323 C 145.098 178.034,144.989 177.938,144.547 177.938 C 143.081 177.938,143.115 178.301,143.231 164.108 C 143.342 150.553,143.442 149.080,144.588 144.257 C 145.635 139.847,147.610 135.561,149.647 133.275 C 150.735 132.054,151.826 131.175,156.918 127.415 C 158.605 126.169,159.182 126.127,161.067 127.113 M157.454 130.796 C 147.632 138.010,146.108 143.062,146.054 168.597 C 146.040 175.306,146.079 175.346,148.376 170.941 C 149.349 169.077,151.611 165.329,153.405 162.613 C 155.198 159.896,156.946 157.248,157.290 156.727 C 160.595 151.711,168.045 146.409,175.497 143.770 L 177.013 143.233 174.538 140.937 C 170.582 137.269,168.237 135.399,164.269 132.751 C 158.917 129.181,159.446 129.333,157.454 130.796 M237.211 134.908 C 234.191 135.721,232.106 136.725,229.496 138.626 C 228.639 139.250,226.535 140.650,224.820 141.736 C 223.106 142.823,220.644 144.461,219.351 145.377 L 217.000 147.043 218.752 148.247 C 227.462 154.233,235.177 166.519,237.772 178.537 C 238.296 180.961,238.324 180.985,239.470 180.004 C 241.258 178.474,242.137 176.202,243.377 169.904 C 245.556 158.839,244.797 142.110,241.831 135.841 L 241.212 134.532 239.851 134.548 C 239.102 134.557,237.914 134.719,237.211 134.908 M185.851 144.841 C 185.126 144.932,183.669 145.087,182.614 145.185 C 173.590 146.022,163.562 152.545,158.067 161.151 C 156.846 163.064,155.155 165.644,154.310 166.885 C 149.990 173.227,147.097 180.598,145.056 190.467 C 144.412 193.576,144.121 193.305,147.686 192.912 C 152.416 192.391,152.903 192.209,158.439 188.904 L 162.081 186.729 161.616 186.138 C 159.054 182.881,159.970 169.670,163.229 162.860 C 166.206 156.639,174.352 154.468,185.965 156.799 L 189.209 157.451 189.213 154.325 C 189.217 151.309,189.440 148.502,189.884 145.863 L 190.096 144.604 188.633 144.640 C 187.829 144.659,186.577 144.749,185.851 144.841 M193.069 151.231 C 193.022 156.931,193.063 157.838,193.362 157.724 C 197.915 155.977,204.990 155.150,207.930 156.022 C 210.479 156.777,218.114 161.405,220.350 163.549 C 226.328 169.283,229.072 184.318,225.193 190.087 C 224.678 190.854,224.301 191.527,224.355 191.581 C 224.929 192.155,230.493 192.517,231.523 192.048 C 232.796 191.468,234.096 192.750,233.589 194.083 C 232.104 197.988,213.189 193.231,202.398 186.238 L 200.360 184.918 199.433 185.804 C 198.923 186.292,197.385 188.057,196.016 189.726 C 191.988 194.638,191.485 194.863,189.050 192.845 C 188.280 192.207,186.409 190.787,184.892 189.689 C 183.375 188.592,180.600 186.416,178.725 184.854 C 174.738 181.532,175.379 181.734,173.411 183.186 C 171.220 184.803,167.531 187.165,164.388 188.962 C 162.938 189.792,160.544 191.220,159.069 192.135 C 154.686 194.853,152.486 195.573,146.780 196.153 C 145.405 196.293,144.229 196.459,144.167 196.521 C 142.946 197.741,143.020 222.915,144.262 229.045 L 144.389 229.673 146.288 229.121 C 151.958 227.473,150.482 227.548,178.177 227.501 C 201.941 227.460,203.659 227.486,211.391 228.003 C 223.260 228.796,232.307 228.977,233.429 228.445 C 234.056 228.147,234.408 228.103,234.739 228.280 C 235.262 228.559,235.255 228.599,235.843 221.703 C 237.281 204.848,236.966 189.262,235.006 180.216 C 232.163 167.098,223.693 154.025,215.228 149.691 C 210.209 147.121,208.562 146.508,204.809 145.807 C 201.760 145.238,196.312 144.605,194.463 144.605 L 193.123 144.604 193.069 151.231 M174.580 159.078 C 170.258 160.091,167.591 161.491,166.480 163.328 C 163.009 169.064,162.005 184.892,165.112 184.892 C 165.662 184.892,171.887 180.561,174.101 178.637 C 186.842 167.567,191.663 161.392,188.309 160.438 C 184.156 159.257,176.887 158.537,174.580 159.078 M200.175 159.115 C 199.150 159.288,197.585 159.646,196.698 159.912 C 195.810 160.177,194.626 160.515,194.066 160.662 C 192.332 161.117,192.188 161.720,192.928 165.408 C 194.602 173.742,196.720 178.394,199.777 180.451 C 200.361 180.844,201.335 181.599,201.941 182.129 C 204.569 184.428,211.968 188.185,217.012 189.782 L 219.667 190.623 220.254 190.036 C 220.577 189.713,221.089 189.448,221.392 189.447 C 223.815 189.440,224.672 183.072,223.151 176.379 C 221.402 168.680,219.737 166.332,213.077 162.178 C 207.327 158.590,205.657 158.194,200.175 159.115 M173.512 161.020 C 173.836 161.344,174.101 161.808,174.101 162.051 C 174.101 162.556,175.018 163.467,177.996 165.920 C 180.692 168.141,181.097 170.024,178.877 170.024 C 177.730 170.024,172.333 165.461,171.443 163.739 C 170.308 161.543,171.919 159.427,173.512 161.020 M212.045 163.969 C 212.990 165.046,212.706 167.018,211.565 167.304 C 211.219 167.391,210.666 167.796,210.335 168.203 C 206.071 173.458,202.373 176.234,201.199 175.060 C 200.300 174.161,200.565 173.688,203.596 170.796 C 205.179 169.286,207.296 167.037,208.302 165.800 C 210.265 163.384,211.151 162.951,212.045 163.969 M188.772 168.729 C 187.549 170.376,184.320 173.691,181.535 176.159 C 180.809 176.802,179.606 177.895,178.860 178.587 L 177.504 179.846 180.179 182.083 C 182.734 184.220,184.347 185.473,188.605 188.629 C 189.659 189.409,190.702 190.182,190.923 190.347 C 191.275 190.608,191.547 190.366,193.079 188.428 C 194.043 187.209,195.512 185.497,196.344 184.625 L 197.857 183.040 196.470 181.623 C 193.884 178.980,192.070 175.299,190.811 170.137 L 190.048 167.012 188.772 168.729 M176.105 172.401 C 177.741 174.037,174.905 176.843,173.217 175.258 C 172.424 174.513,172.454 173.088,173.279 172.263 C 174.007 171.535,175.302 171.598,176.105 172.401 M211.738 176.201 C 213.200 177.384,211.395 180.480,209.519 180.009 C 207.371 179.470,208.135 175.779,210.394 175.779 C 210.847 175.779,211.452 175.969,211.738 176.201 M239.733 204.397 C 239.570 214.506,238.568 229.312,237.982 230.261 C 237.722 230.682,238.784 230.424,239.604 229.867 C 241.380 228.660,244.590 223.595,245.663 220.304 C 248.000 213.140,246.375 204.238,241.424 197.079 C 239.828 194.772,239.892 194.493,239.733 204.397 M139.322 199.452 C 130.581 209.007,129.535 218.364,136.201 227.384 C 137.895 229.677,140.573 231.353,141.121 230.465 C 141.200 230.338,141.019 228.153,140.719 225.609 C 140.082 220.208,139.940 206.006,140.471 200.976 C 140.821 197.665,140.882 197.746,139.322 199.452 M225.482 202.651 C 228.802 203.573,227.193 205.855,222.952 206.238 C 214.814 206.972,210.791 206.505,210.791 204.826 C 210.791 203.562,211.104 203.488,217.002 203.357 C 221.652 203.254,222.506 203.178,223.015 202.818 C 223.697 202.335,224.218 202.300,225.482 202.651 M165.359 205.145 C 167.381 207.167,164.489 208.170,155.523 208.557 L 152.129 208.704 151.604 208.037 C 150.188 206.237,151.166 205.629,155.803 205.426 C 157.887 205.335,160.348 205.116,161.271 204.941 C 163.941 204.432,164.683 204.469,165.359 205.145 M165.838 211.620 C 167.814 213.596,165.908 214.647,159.288 215.231 C 153.207 215.768,152.186 215.730,151.572 214.950 C 150.511 213.601,151.583 212.471,153.923 212.469 C 157.004 212.466,163.554 211.774,164.098 211.394 C 164.813 210.893,165.156 210.937,165.838 211.620 M227.831 212.156 C 229.178 212.952,229.318 214.503,228.113 215.292 C 226.789 216.160,215.309 215.789,214.369 214.848 C 212.770 213.250,214.119 212.136,217.264 212.458 C 221.499 212.893,225.114 212.797,225.834 212.230 C 226.578 211.645,226.943 211.631,227.831 212.156 " stroke="none" fill="#fbfbfb" fill-rule="evenodd"></path><path id="path2" d="M192.806 144.563 C 192.806 144.672,193.129 144.714,193.525 144.655 C 193.921 144.597,194.245 144.508,194.245 144.457 C 194.245 144.406,193.921 144.365,193.525 144.365 C 193.129 144.365,192.806 144.454,192.806 144.563 M247.571 152.518 C 247.571 153.903,247.610 154.469,247.659 153.777 C 247.707 153.085,247.707 151.951,247.659 151.259 C 247.610 150.567,247.571 151.133,247.571 152.518 M189.280 151.559 C 189.280 152.284,189.325 152.581,189.380 152.218 C 189.435 151.856,189.435 151.262,189.380 150.899 C 189.325 150.537,189.280 150.833,189.280 151.559 M162.577 155.096 L 161.751 155.995 162.650 155.169 C 163.487 154.400,163.659 154.197,163.476 154.197 C 163.436 154.197,163.032 154.601,162.577 155.096 M146.131 159.113 C 146.131 160.432,146.172 160.941,146.220 160.244 C 146.269 159.547,146.268 158.468,146.219 157.846 C 146.170 157.224,146.130 157.794,146.131 159.113 M247.551 161.751 C 247.552 162.410,247.599 162.651,247.654 162.287 C 247.709 161.922,247.708 161.383,247.651 161.088 C 247.594 160.793,247.549 161.091,247.551 161.751 M183.453 170.144 C 182.871 170.737,182.448 171.223,182.514 171.223 C 182.580 171.223,183.111 170.737,183.693 170.144 C 184.276 169.550,184.698 169.065,184.632 169.065 C 184.566 169.065,184.036 169.550,183.453 170.144 M222.890 202.854 C 222.764 202.974,222.446 203.123,222.182 203.186 C 221.727 203.296,221.729 203.303,222.213 203.329 C 222.493 203.345,222.857 203.195,223.022 202.998 C 223.347 202.605,223.256 202.506,222.890 202.854 M218.405 206.411 C 218.966 206.461,219.883 206.461,220.444 206.411 C 221.004 206.360,220.546 206.319,219.424 206.319 C 218.303 206.319,217.845 206.360,218.405 206.411 M239.634 208.633 C 239.634 209.227,239.680 209.469,239.738 209.173 C 239.795 208.876,239.795 208.390,239.738 208.094 C 239.680 207.797,239.634 208.040,239.634 208.633 M155.695 208.559 C 155.926 208.619,156.304 208.619,156.535 208.559 C 156.766 208.498,156.577 208.449,156.115 208.449 C 155.653 208.449,155.465 208.498,155.695 208.559 M128.837 214.748 C 128.840 215.276,128.889 215.463,128.947 215.165 C 129.004 214.867,129.002 214.435,128.942 214.206 C 128.882 213.977,128.835 214.221,128.837 214.748 M220.803 215.765 C 221.628 215.812,222.977 215.812,223.801 215.765 C 224.625 215.718,223.951 215.680,222.302 215.680 C 220.653 215.680,219.979 215.718,220.803 215.765 M140.108 218.345 C 140.111 218.873,140.160 219.060,140.218 218.762 C 140.275 218.464,140.273 218.032,140.213 217.803 C 140.153 217.574,140.106 217.818,140.108 218.345 M169.972 227.515 C 170.669 227.564,171.748 227.563,172.370 227.514 C 172.992 227.465,172.422 227.425,171.103 227.426 C 169.784 227.426,169.275 227.467,169.972 227.515 M222.122 228.702 C 222.353 228.763,222.731 228.763,222.962 228.702 C 223.192 228.642,223.004 228.593,222.542 228.593 C 222.080 228.593,221.891 228.642,222.122 228.702 M231.355 228.946 C 231.652 229.003,232.137 229.003,232.434 228.946 C 232.731 228.889,232.488 228.842,231.894 228.842 C 231.301 228.842,231.058 228.889,231.355 228.946 M177.278 230.391 C 177.773 230.442,178.582 230.442,179.077 230.391 C 179.571 230.339,179.167 230.296,178.177 230.296 C 177.188 230.296,176.784 230.339,177.278 230.391 M192.866 230.392 C 193.492 230.441,194.517 230.441,195.144 230.392 C 195.770 230.343,195.258 230.302,194.005 230.302 C 192.752 230.302,192.239 230.343,192.866 230.392 M155.336 230.629 C 155.764 230.682,156.466 230.682,156.894 230.629 C 157.323 230.576,156.972 230.532,156.115 230.532 C 155.258 230.532,154.907 230.576,155.336 230.629 M224.403 231.824 C 224.702 231.882,225.133 231.879,225.363 231.819 C 225.592 231.759,225.348 231.712,224.820 231.715 C 224.293 231.718,224.105 231.767,224.403 231.824 M161.931 240.168 C 161.934 240.695,161.983 240.883,162.040 240.585 C 162.097 240.286,162.095 239.855,162.035 239.626 C 161.975 239.396,161.928 239.640,161.931 240.168 M208.429 250.525 C 208.409 251.474,208.474 252.300,208.573 252.361 C 208.672 252.423,208.722 251.916,208.684 251.236 C 208.562 249.031,208.466 248.763,208.429 250.525 M171.942 257.869 C 171.942 257.910,172.293 258.261,172.722 258.648 L 173.501 259.353 172.797 258.573 C 172.140 257.847,171.942 257.684,171.942 257.869 M164.340 261.631 C 164.340 262.356,164.385 262.653,164.440 262.290 C 164.495 261.927,164.495 261.334,164.440 260.971 C 164.385 260.609,164.340 260.905,164.340 261.631 M151.430 264.568 L 150.240 265.827 151.499 264.637 C 152.669 263.532,152.868 263.309,152.689 263.309 C 152.651 263.309,152.084 263.876,151.430 264.568 " stroke="none" fill="#9d9d9d" fill-rule="evenodd"></path><path id="path3" d="M150.225 132.674 L 149.520 133.453 150.300 132.749 C 150.728 132.362,151.079 132.011,151.079 131.970 C 151.079 131.784,150.881 131.947,150.225 132.674 M143.221 155.156 C 143.221 155.618,143.270 155.806,143.331 155.576 C 143.391 155.345,143.391 154.967,143.331 154.736 C 143.270 154.505,143.221 154.694,143.221 155.156 M146.099 155.635 C 146.099 156.097,146.148 156.286,146.208 156.055 C 146.269 155.824,146.269 155.447,146.208 155.216 C 146.148 154.985,146.099 155.174,146.099 155.635 M189.269 155.755 C 189.272 156.283,189.321 156.471,189.378 156.172 C 189.436 155.874,189.433 155.442,189.373 155.213 C 189.313 154.984,189.266 155.228,189.269 155.755 M176.921 155.805 C 177.220 155.862,177.651 155.860,177.880 155.800 C 178.110 155.740,177.866 155.693,177.338 155.696 C 176.811 155.699,176.623 155.748,176.921 155.805 M205.860 168.645 L 205.156 169.424 205.935 168.720 C 206.364 168.333,206.715 167.982,206.715 167.941 C 206.715 167.755,206.517 167.919,205.860 168.645 M203.462 171.043 L 202.758 171.823 203.537 171.118 C 203.966 170.731,204.317 170.380,204.317 170.339 C 204.317 170.154,204.119 170.317,203.462 171.043 M160.283 178.058 C 160.284 179.640,160.323 180.257,160.370 179.427 C 160.417 178.598,160.416 177.303,160.369 176.549 C 160.321 175.796,160.283 176.475,160.283 178.058 M163.158 178.177 C 163.158 179.562,163.198 180.129,163.246 179.436 C 163.295 178.744,163.295 177.611,163.246 176.918 C 163.198 176.226,163.158 176.793,163.158 178.177 M193.150 192.866 L 192.446 193.645 193.225 192.941 C 193.654 192.553,194.005 192.203,194.005 192.161 C 194.005 191.976,193.807 192.139,193.150 192.866 M229.317 192.498 C 229.679 192.553,230.273 192.553,230.635 192.498 C 230.998 192.443,230.701 192.398,229.976 192.398 C 229.251 192.398,228.954 192.443,229.317 192.498 M236.793 199.760 C 236.793 202.728,236.828 203.942,236.870 202.458 C 236.912 200.974,236.912 198.546,236.870 197.062 C 236.828 195.579,236.793 196.793,236.793 199.760 M228.840 195.376 C 229.205 195.431,229.744 195.430,230.039 195.373 C 230.334 195.316,230.036 195.271,229.376 195.272 C 228.717 195.274,228.476 195.321,228.840 195.376 M239.672 201.079 C 239.672 204.245,239.706 205.506,239.748 203.883 C 239.789 202.260,239.789 199.670,239.747 198.128 C 239.706 196.586,239.672 197.914,239.672 201.079 M139.673 198.861 L 138.969 199.640 139.748 198.936 C 140.177 198.549,140.528 198.198,140.528 198.157 C 140.528 197.971,140.330 198.134,139.673 198.861 M212.770 206.407 C 213.132 206.462,213.726 206.462,214.089 206.407 C 214.451 206.352,214.155 206.307,213.429 206.307 C 212.704 206.307,212.407 206.352,212.770 206.407 M140.149 212.350 C 140.149 214.988,140.184 216.100,140.227 214.821 C 140.270 213.542,140.270 211.384,140.227 210.025 C 140.184 208.666,140.149 209.712,140.149 212.350 M143.023 212.230 C 143.023 214.406,143.060 215.297,143.104 214.209 C 143.149 213.121,143.149 211.340,143.104 210.252 C 143.060 209.164,143.023 210.054,143.023 212.230 M152.942 208.567 C 153.373 208.620,154.020 208.619,154.381 208.565 C 154.741 208.510,154.388 208.466,153.597 208.468 C 152.806 208.469,152.511 208.514,152.942 208.567 M236.506 212.230 C 236.506 212.692,236.556 212.881,236.616 212.650 C 236.676 212.419,236.676 212.041,236.616 211.811 C 236.556 211.580,236.506 211.769,236.506 212.230 M249.715 214.269 C 249.716 215.060,249.761 215.355,249.814 214.924 C 249.867 214.493,249.866 213.845,249.812 213.485 C 249.757 213.125,249.713 213.477,249.715 214.269 M246.823 214.508 C 246.826 215.036,246.875 215.224,246.932 214.925 C 246.990 214.627,246.987 214.195,246.927 213.966 C 246.867 213.737,246.820 213.981,246.823 214.508 M174.283 227.508 C 174.582 227.565,175.013 227.563,175.243 227.503 C 175.472 227.443,175.228 227.396,174.700 227.399 C 174.173 227.401,173.985 227.450,174.283 227.508 M197.422 227.503 C 197.653 227.564,198.031 227.564,198.261 227.503 C 198.492 227.443,198.303 227.394,197.842 227.394 C 197.380 227.394,197.191 227.443,197.422 227.503 M220.444 228.702 C 220.674 228.763,221.052 228.763,221.283 228.702 C 221.514 228.642,221.325 228.593,220.863 228.593 C 220.402 228.593,220.213 228.642,220.444 228.702 M227.398 228.949 C 227.761 229.004,228.354 229.004,228.717 228.949 C 229.080 228.894,228.783 228.849,228.058 228.849 C 227.332 228.849,227.035 228.894,227.398 228.949 M174.880 230.381 C 175.111 230.441,175.489 230.441,175.719 230.381 C 175.950 230.321,175.761 230.271,175.300 230.271 C 174.838 230.271,174.649 230.321,174.880 230.381 M197.065 230.385 C 197.363 230.443,197.795 230.441,198.024 230.381 C 198.254 230.321,198.010 230.274,197.482 230.276 C 196.954 230.279,196.767 230.328,197.065 230.385 M162.422 231.655 C 162.422 232.380,162.467 232.677,162.522 232.314 C 162.577 231.951,162.577 231.358,162.522 230.995 C 162.467 230.632,162.422 230.929,162.422 231.655 M165.305 231.894 C 165.305 232.752,165.348 233.103,165.401 232.674 C 165.454 232.245,165.454 231.544,165.401 231.115 C 165.348 230.686,165.305 231.037,165.305 231.894 M219.964 231.580 C 220.195 231.640,220.573 231.640,220.803 231.580 C 221.034 231.520,220.845 231.471,220.384 231.471 C 219.922 231.471,219.733 231.520,219.964 231.580 M226.682 231.827 C 227.046 231.882,227.586 231.880,227.881 231.823 C 228.176 231.767,227.878 231.721,227.218 231.723 C 226.559 231.725,226.317 231.772,226.682 231.827 M161.953 243.285 C 161.954 244.341,161.996 244.742,162.046 244.178 C 162.097 243.614,162.096 242.751,162.045 242.260 C 161.993 241.769,161.952 242.230,161.953 243.285 M164.850 247.242 C 164.850 250.078,164.885 251.238,164.927 249.820 C 164.970 248.402,164.970 246.082,164.927 244.664 C 164.885 243.246,164.850 244.406,164.850 247.242 M205.581 247.002 C 205.581 247.596,205.628 247.839,205.685 247.542 C 205.742 247.245,205.742 246.760,205.685 246.463 C 205.628 246.166,205.581 246.409,205.581 247.002 M208.459 247.482 C 208.459 248.076,208.505 248.318,208.563 248.022 C 208.620 247.725,208.620 247.239,208.563 246.942 C 208.505 246.646,208.459 246.888,208.459 247.482 M161.942 251.559 C 161.942 252.284,161.987 252.581,162.042 252.218 C 162.097 251.856,162.097 251.262,162.042 250.899 C 161.987 250.537,161.942 250.833,161.942 251.559 M204.905 257.134 L 203.957 258.153 204.976 257.206 C 205.924 256.324,206.105 256.115,205.924 256.115 C 205.885 256.115,205.426 256.574,204.905 257.134 M164.324 264.029 C 164.324 264.490,164.374 264.679,164.434 264.448 C 164.494 264.218,164.494 263.840,164.434 263.609 C 164.374 263.378,164.324 263.567,164.324 264.029 M161.447 264.508 C 161.447 264.970,161.496 265.159,161.556 264.928 C 161.617 264.697,161.617 264.320,161.556 264.089 C 161.496 263.858,161.447 264.047,161.447 264.508 " stroke="none" fill="#7c7c7c" fill-rule="evenodd"></path><path id="path4" d="M189.277 153.837 C 189.279 154.496,189.326 154.738,189.381 154.373 C 189.436 154.009,189.434 153.469,189.377 153.174 C 189.321 152.879,189.275 153.177,189.277 153.837 M247.574 157.794 C 247.574 159.442,247.613 160.117,247.660 159.293 C 247.706 158.468,247.706 157.119,247.660 156.295 C 247.613 155.471,247.574 156.145,247.574 157.794 M215.288 206.408 C 215.716 206.462,216.418 206.462,216.847 206.408 C 217.275 206.355,216.924 206.312,216.067 206.312 C 215.210 206.312,214.859 206.355,215.288 206.408 M128.837 216.427 C 128.840 216.954,128.889 217.142,128.947 216.844 C 129.004 216.545,129.002 216.114,128.942 215.884 C 128.882 215.655,128.835 215.899,128.837 216.427 M229.679 228.947 C 229.977 229.004,230.409 229.002,230.638 228.942 C 230.868 228.882,230.624 228.835,230.096 228.837 C 229.568 228.840,229.381 228.889,229.679 228.947 " stroke="none" fill="#848484" fill-rule="evenodd"></path></g></svg>