<?xml version="1.0" standalone="no"?>
<!DOCTYPE svg PUBLIC "-//W3C//DTD SVG 20010904//EN"
 "http://www.w3.org/TR/2001/REC-SVG-20010904/DTD/svg10.dtd">
<svg version="1.0" xmlns="http://www.w3.org/2000/svg"
 width="192.000000pt" height="192.000000pt" viewBox="0 0 192.000000 192.000000"
 preserveAspectRatio="xMidYMid meet">
<metadata>
Created by potrace 1.14, written by Peter Selinger 2001-2017
</metadata>
<g transform="translate(0.000000,192.000000) scale(0.100000,-0.100000)"
fill="#000000" stroke="none">
<path d="M563 1795 c-100 -71 -125 -158 -122 -427 2 -224 -6 -260 -74 -343
-67 -80 -87 -126 -87 -203 0 -73 30 -144 80 -186 38 -31 32 -31 122 -6 40 11
94 20 120 20 l48 0 0 -120 0 -119 -58 -68 c-32 -38 -66 -74 -75 -82 -21 -16
-22 -51 -3 -51 8 0 39 28 70 62 l56 61 0 -45 c0 -56 7 -78 26 -78 15 0 16 7
14 93 -1 56 -1 58 19 48 11 -6 41 -36 68 -66 49 -56 67 -66 76 -41 7 17 -88
124 -127 145 -26 14 -26 15 -26 138 l0 123 228 -2 227 -3 -4 -140 -3 -139 -64
-71 c-35 -38 -64 -75 -64 -82 0 -33 27 -20 77 36 30 33 58 61 63 61 5 0 14
-24 20 -54 12 -60 35 -90 46 -62 3 9 -1 45 -10 81 -9 35 -16 67 -16 69 0 3 37
-21 82 -54 45 -33 87 -59 92 -57 30 10 6 39 -86 105 l-100 74 4 109 c2 60 8
112 11 116 9 8 285 -11 308 -21 26 -12 82 46 114 115 24 54 27 71 23 133 -5
78 -31 146 -77 205 -44 55 -49 87 -18 119 36 39 44 59 63 158 26 140 7 357
-36 409 -16 19 -71 19 -114 1 -19 -8 -75 -42 -126 -76 l-91 -61 -67 17 c-45
12 -109 18 -194 19 l-126 2 -54 48 c-50 45 -163 125 -178 125 -3 0 -29 -16
-57 -35z m115 -47 c26 -18 66 -50 89 -71 l43 -39 -58 -28 c-81 -38 -127 -81
-191 -181 -31 -47 -62 -95 -69 -105 -10 -16 -12 9 -9 136 3 137 6 161 26 208
21 47 87 112 114 112 4 0 29 -14 55 -32z m881 -63 c18 -53 20 -291 3 -367 -7
-32 -21 -67 -31 -80 l-18 -22 -17 60 c-26 89 -99 211 -162 270 l-55 51 82 54
c141 92 176 98 198 34z m-606 -196 c-4 -4 -35 -3 -67 3 -77 14 -154 -3 -195
-41 -42 -40 -64 -122 -59 -228 l3 -85 -54 -29 c-49 -27 -121 -39 -121 -21 1
30 42 158 68 207 102 203 211 296 367 313 l60 7 3 -59 c2 -32 -1 -62 -5 -67z
m247 91 c112 -42 203 -154 258 -317 26 -75 27 -86 26 -303 0 -124 -3 -237 -7
-252 l-7 -27 -458 6 c-342 5 -471 3 -507 -6 -26 -6 -49 -10 -51 -8 -9 9 -16
211 -10 280 8 84 3 78 86 92 29 4 185 90 252 137 13 10 23 6 54 -18 111 -87
136 -104 148 -104 8 0 25 15 40 34 53 70 50 69 119 31 69 -37 171 -71 245 -81
37 -5 51 -2 61 10 20 23 4 36 -45 36 -24 0 -44 2 -44 4 0 2 7 21 16 41 13 32
14 48 4 103 -22 125 -52 170 -158 229 -59 33 -68 35 -120 29 -32 -3 -67 -9
-79 -12 -22 -6 -23 -4 -23 58 0 36 2 67 5 70 10 9 141 -12 195 -32z m-292
-135 c64 -10 57 -34 -42 -131 -93 -91 -171 -148 -186 -139 -6 3 -10 39 -9 78
0 83 23 152 57 175 20 13 22 13 22 -6 0 -19 71 -92 89 -92 26 0 18 25 -20 67
-39 42 -41 47 -23 54 10 4 30 6 44 4 14 -2 44 -7 68 -10z m323 -32 c66 -43 92
-83 110 -176 14 -67 0 -114 -36 -123 -49 -12 -220 83 -260 145 -24 38 -51 138
-43 162 6 18 93 39 136 34 19 -2 61 -21 93 -42z m-208 -196 l24 -32 -33 -39
-33 -38 -33 23 c-18 13 -52 38 -75 57 l-43 34 68 67 67 66 16 -53 c10 -29 28
-67 42 -85z m563 -286 c23 -76 14 -158 -23 -216 -38 -61 -58 -68 -49 -18 3 21
9 107 12 191 l7 153 19 -28 c10 -15 26 -52 34 -82z m-1180 -101 c0 -94 -3
-170 -6 -170 -11 0 -47 43 -64 77 -21 42 -21 135 1 176 19 38 55 87 62 87 3 0
6 -77 7 -170z"/>
<path d="M1267 963 c-58 -3 -68 -7 -65 -21 3 -14 16 -18 68 -20 83 -4 110 3
110 28 0 15 -6 19 -22 18 -13 -1 -54 -3 -91 -5z"/>
<path d="M592 943 c-36 -3 -55 -9 -59 -20 -3 -8 -1 -18 5 -22 16 -10 140 3
153 16 16 16 2 33 -24 31 -12 -1 -46 -3 -75 -5z"/>
<path d="M585 861 c-37 -4 -51 -11 -53 -23 -3 -16 5 -18 63 -18 71 0 105 12
105 35 0 16 -22 17 -115 6z"/>
<path d="M1310 863 c-68 -4 -92 -15 -73 -34 13 -13 153 -13 166 0 10 10 -9 43
-22 39 -3 -1 -35 -3 -71 -5z"/>
<path d="M777 1313 c-15 -14 -7 -43 12 -43 26 0 36 17 21 35 -14 16 -23 19
-33 8z"/>
<path d="M1143 1354 c-52 -54 -66 -84 -40 -84 20 1 117 100 117 121 0 32 -22
21 -77 -37z"/>
<path d="M1177 1264 c-4 -4 -7 -16 -7 -26 0 -14 6 -19 23 -16 14 2 22 10 22
23 0 20 -25 32 -38 19z"/>
</g>
</svg>
